<svg viewBox="214.9810028076172 115.69999694824219 240.6999969482422 240" width="240.7" height="240" xmlns="http://www.w3.org/2000/svg"><defs><style>.st0{fill:#3e6617}.st1{fill:#c4e661}.st2{fill:#ec3686}.st3{font-family:&amp;apos;OpenSans-Regular&amp;apos;}.st4{font-size:37.9876px}.st5{font-family:&amp;apos;OpenSans-Light&amp;apos;}.st6{font-size:26.2295px}</style></defs><path class="st0" d="M435.481 303.5c-3.1 3.3-6.7 6.2-10.3 9-3.7 2.7-7.6 5.1-11.7 7.3-1 .5-2.1 1.1-3.1 1.6l-3.2 1.4-1.6.7-1.6.6-3.3 1.2c-2.2.8-4.5 1.4-6.7 2l-3.5.8c-1.2.3-2.3.5-3.5.7-4.7.8-9.4 1.3-14.3 1.1l-3.6-.1c-1.2-.1-2.4-.3-3.6-.4-1.2-.2-2.4-.3-3.6-.5l-3.6-.7c-.6-.1-1.2-.2-1.8-.4l-1.7-.5-3.5-1.1-3.4-1.3-1.7-.7-1.6-.7-3.2-1.5-3.1-1.5c-2.1-1-4.1-2.1-6.1-3.1-3.9-2.2-7.7-4.2-11.5-6-3.8-1.7-7.6-3.1-11.5-4.1-1.9-.6-3.9-.8-5.9-1.2l-.7-.1-.8-.1-1.5-.1-3-.2c-2.1 0-4.1 0-6.2.1l-3.1.2-1.6.1c-.5 0-1 .1-1.6.2-2.1.3-4.2.5-6.3 1l-3.1.6-3.1.8c-4.2 1-8.3 2.4-12.4 3.9-8.2 3-16.3 6.7-24.2 10.9h-.1c-.2.1-.4 0-.5-.1-.1-.2 0-.3.1-.4 7.2-5.4 15-9.9 23.1-13.8 8.2-3.8 16.7-6.7 25.6-8.3.6-.1 1.1-.2 1.7-.3l1.7-.2 3.4-.4c2.2-.2 4.5-.2 6.8-.4l3.4.1 1.7.1h.8l.8.1c2.2.3 4.5.5 6.7 1.1 1.1.3 2.2.5 3.3.8l3.2 1c1.1.3 2.1.7 3.2 1.2 1 .4 2.1.8 3.1 1.3 4.1 1.8 8.1 3.9 12 6.1 2 1 3.9 2.1 5.9 3.1l3 1.5 3 1.4 1.5.7 1.5.6 3.1 1.2 3.2 1 1.6.5c.5.1 1.1.3 1.6.4 8.6 2.2 17.6 2.5 26.4 1.5 8.8-1 17.5-3.5 25.7-7l1.5-.6 1.5-.7 3-1.4c2-1 4-2 5.9-3.2 3.9-2.2 7.6-4.6 11.1-7.4.2-.1.4-.1.5.1 0 .2 0 .4-.2.5z"/><path class="st1" d="M317.781 229.4c-3.3-4.8-6.7-9.3-10.6-13.4-3.8-4-8-7.6-12.5-10.8-4.5-3.1-9.3-5.9-14.4-8.2-5.1-2.4-10.4-4.4-15.9-6.5 5.9-.3 11.8.5 17.5 2.1 5.7 1.7 11.2 4.3 16.2 7.7 4.9 3.5 9.3 7.8 12.7 12.7 3.5 5.1 5.9 10.6 7 16.4zm17.7 63.2c-.4-13 .1-26.1 2.9-39 1.3-6.5 3.4-12.8 5.9-19 2.6-6.1 5.9-12 9.6-17.5 3.8-5.5 8.2-10.5 13.1-15s10.2-8.5 15.8-12c1.4-.8 2.8-1.7 4.3-2.5 1.4-.8 2.9-1.6 4.4-2.3 1.5-.8 3-1.4 4.5-2.1l2.2-1 6.9-2.7c1.5-.5 3.1-1.1 4.6-1.6 3.1-1.1 6.3-1.8 9.4-2.7-11.8 5.5-23.3 11.4-33.6 18.8-5.1 3.8-10.1 7.7-14.5 12.2-1.1 1.1-2.2 2.3-3.3 3.4l-3.1 3.5c-1 1.2-2 2.4-3 3.7-1 1.2-1.8 2.5-2.8 3.8-7.3 10.2-12.4 21.9-15.9 34.1-3.5 12.2-5.3 25-7.4 37.9z"/><path class="st2" d="M335.281 141.4c6.3.1 12.5 2.5 17.3 6.8 2.4 2.1 4.4 4.8 5.7 7.7 1.4 3 2.2 6.2 2.3 9.5.2 6.6-2.4 13.3-7.1 18.2-4.7 4.9-11.4 7.8-18.2 8-6.8.2-13.8-2.4-18.9-7.3-2.5-2.4-4.6-5.4-5.9-8.6-1.4-3.3-2-6.8-1.9-10.3.1-3.5 1-7 2.5-10.1 1.6-3.1 3.7-5.8 6.3-7.9 5.1-4.1 11.6-6.1 17.9-6zm0 .6c-3.1.1-6.1.8-8.8 2.2-2.7 1.4-5 3.3-6.9 5.6-3.7 4.6-5.3 10.2-5.1 15.7.2 5.5 2.3 10.7 6.1 14.7 3.7 4 9.1 6.5 14.7 6.7 5.6.2 11.3-2 15.4-6 4.2-3.9 6.7-9.5 6.9-15.4.2-5.8-1.8-11.8-5.9-16.4-2-2.3-4.6-4.1-7.4-5.3-2.8-1.2-5.9-1.8-9-1.8z"/></svg>