<svg xmlns="http://www.w3.org/2000/svg" viewBox="-39.9 -40 553 553"><path d="M409 255.4l-.1.1c-.2.5-1.6 1-1.9.4-12.6-24.9-35.9-42.6-61.4-52.6-.6-.2.2-.7.4-.8 25.7-10.1 48-27.7 61-52.3.3-.5 1.6-1 1.9-.4 13.2 24.5 35.4 43 61.4 52.6.6.2-.1.7-.4.8-13.1 5-25.4 12.1-36.2 21.1 0 .1-.1.1-.1.1-9.8 8.6-18.7 19.3-24.6 31zm-.9-1.7c5.4-9.9 12.7-19 20.9-26.7l-20.6-23.8-.7.4c6.7-20.6 2.1-44.7.7-50.9-.2-.3-.3-.5-.5-.8-5.6 10.2-12.9 19.1-21.2 26.8l20.9 24.1-.3.1c-23.6-5.5-51-1.7-58.6-.5-.2.1-.5.2-.7.3.1.1.2.1.3.1.9.4 1.9.8 2.9 1.3 3.3 1.4 6.5 3 9.7 4.7 6.6 3.4 13.1 7.1 19 11.7l27.4-17.6c.2.1.3.1.5.1l-.2-.2.5-.4c-6.3 19.3-2.6 41.6-1 49.5.4.6.7 1.2 1 1.8zM468 203c-.1-.1-.1-.1-.2-.1-3.8-1.5-7.6-3.3-11.3-5.2-8.8-4.5-16.9-9.9-24.3-16.2 1.5 1.3 2.9 2.5 4.4 3.7L408.7 203c23.2 5.3 49.8 1.8 58 .5.4-.2.9-.4 1.3-.5zm-121.1.2h-.1.1zM74.2 145.7l42-.2c12.5 0 20.1 1.8 25.3 5.4 6 3.9 9.3 11.2 9.3 18.7 0 15.6-13.2 22-22.6 24.5v.5c16.6 2.4 29.7 9.7 29.7 26.1 0 11-6.2 19.4-16.1 24.8-8.6 4.6-19.6 6.5-32.8 6.5H72v-4.6c14.4-1 15.4-2 15.4-15.7v-66.2c0-13.3-.8-13.6-13.5-14.6-4.5 0-7.2.1-8.6.6-1.7.5-3.1 2.2-4 3.6-.5.6-1 1.3-1.4 2-.4 1.3-.7 2.6-.7 3.9-.1 2-.2 5.2-.3 9.4 0 4.2-.1 10.3-.1 18.1v39.9c0 1.5.1 3.4.2 5.6.2 4 .2 7.4.2 10.1v7.7c0 7.1-.2 13.2-.7 18.3-.4 4.7-1.2 9.3-2.4 13.9-1.1 4-2.7 7.9-4.7 11.5-2.2 3.9-4.7 7.5-7.6 10.9-2.5 3.2-5.3 6.2-8.3 9-2.7 2.5-5.6 4.9-8.7 7-2.6 1.8-5.4 3.3-8.3 4.6-2.3 1-4.8 1.5-7.3 1.6-2.8.1-5.7-.3-8.3-1.2-2.2-.9-3.2-2-3-3.6.1-.9.4-1.8.9-2.5.6-1.1 1.8-3.1 3.7-6.2 1.9-2.6 3.4-3.9 4.5-3.9h.4c.6.1 1.1.3 1.6.5l2.5.9c1 .5 2.2.8 3.3 1 1.1.2 2.2.3 3.3.3 4.4 0 8.5-1.6 11.7-4.5 3.5-3.1 6-7.2 7.2-11.7.9-3.6 1.5-7.3 1.8-11 .4-4.1.7-8.7.8-13.7 0-4.8.1-8.8.1-11.9.1-3.1.1-5.8.1-8s.1-4.2.1-5.9c.1-1.8.1-3.6.1-5.5v-55.9c0-2.7 0-5.5-.1-8.2 0-2.7-.2-6.4-.4-11 .1-2.6-.1-5.1-.6-7.6-.3-1.7-1.1-3.3-2.4-4.4-1.5-1.2-3.4-1.9-5.3-2.2-3-.5-6-.8-9.1-.8v-7.3c6.1.4 10.9.7 14.6.8 3.7.2 7.2.2 10.5.2zm16.1 160.4h1.2c-1.2 4.2-4.3 6.3-9.1 6.3-3.2 0-5.8-1.1-7.9-3.2-2.1-2.2-3.2-5-3.2-8.5 0-3.6 1.1-6.5 3.4-8.7 2.3-2.2 5.1-3.3 8.2-3.3 1.9 0 3.6.4 5.2 1.2 1.6.8 2.4 1.9 2.4 3 0 .5-.1.9-.4 1.3-.3.4-.8.6-1.3.6-1.2 0-1.9-.7-2.2-2.1-.2-1-.5-1.7-1-2.1-.4-.4-1.3-.7-2.7-.7-2.4 0-4.2.9-5.4 2.5-1.2 1.7-1.8 4.2-1.8 7.5 0 3.5.7 6.2 2 8.1 1.3 2 3.2 2.9 5.9 2.9 3.5 0 5.7-1.6 6.7-4.8zm1.8-5.6c0-3.4 1.1-6.2 3.3-8.4 2.3-2.3 5-3.4 8.3-3.4 3.3 0 6.1 1.1 8.3 3.4 2.3 2.2 3.4 5 3.4 8.4 0 3.7-1.1 6.6-3.4 8.7-2.3 2.1-5.1 3.2-8.3 3.2-3.2 0-6-1.1-8.3-3.3-2.2-2.1-3.3-5-3.3-8.6zm4.4.1c0 3.9.6 6.6 1.9 8.2 1.3 1.5 3 2.3 5.3 2.3 2.4 0 4.1-.8 5.4-2.3 1.2-1.6 1.8-4.3 1.8-8.2 0-3.8-.6-6.6-1.8-8.2-1.2-1.7-3-2.5-5.4-2.5-2.3 0-4.1.8-5.4 2.5-1.2 1.6-1.8 4.3-1.8 8.2zm24.5-11.9c.5 1.2.8 2.7.8 4.6 1.2-1.6 2.4-2.7 3.8-3.5 1.4-.7 2.9-1.1 4.5-1.1 1.8 0 3.2.4 4.4 1.2 1.1.8 1.9 2.1 2.3 3.7 1.4-1.6 2.8-2.9 4.2-3.7 1.4-.8 2.9-1.2 4.4-1.2 1.7 0 3.1.4 4.3 1.1 1.1.8 1.9 1.7 2.1 2.7.3 1 .4 2.6.4 4.9v6.6c0 2.5 0 4.1.1 4.6.1.6.4 1 .9 1.2.3.2.9.4 1.7.4.7 0 1.3-.2 1.6-.3.5-.3.8-.7.9-1.2.1-.5.1-2.1.1-4.7v-6.6c0-2.5 0-4-.1-4.6-.1-.6-.3-1-.8-1.3-.5-.3-1.3-.4-2.6-.4v-1.2c2.6-.3 4.7-.7 6.3-1.2h.3c.5 1.2.8 2.7.8 4.6 1.2-1.6 2.4-2.7 3.8-3.5 1.4-.7 2.9-1.1 4.5-1.1 1.8 0 3.3.4 4.4 1.2 1.1.8 1.9 2.1 2.3 3.7 1.4-1.6 2.8-2.9 4.2-3.7 1.4-.8 2.9-1.2 4.4-1.2 1.7 0 3.1.4 4.3 1.1 1.2.8 1.9 1.7 2.1 2.7.3 1 .4 2.6.4 4.9v6.6c0 2.5 0 4.1.1 4.6.1.6.4 1 .9 1.2.5.3 1.3.4 2.6.4v1.3h-10.9v-1.3c1.1 0 2-.1 2.4-.3.5-.3.8-.7.9-1.2.1-.5.2-2.1.2-4.7v-7.4c0-1.4-.1-2.5-.3-3.3-.2-.7-.6-1.4-1.3-1.9-.7-.6-1.7-.8-2.8-.8-1.2 0-2.3.4-3.5 1.1-1.2.8-2.3 2-3.5 3.6v8.7c0 2.3 0 3.8.1 4.4 0 .6.3 1 .7 1.4.5.3 1.3.4 2.4.4v1.3h-10.6v-1.3c1.2 0 2-.1 2.5-.3.5-.3.7-.7.9-1.2.1-.5.1-2.1.1-4.7v-6.1c0-2 0-3.3-.2-4.2-.1-.9-.6-1.6-1.4-2.2-.7-.6-1.7-1-2.8-1-1.1 0-2.3.4-3.4 1.1-1.2.7-2.3 1.8-3.5 3.2v9.2c0 2.4 0 3.9.1 4.4 0 .6.3 1.1.8 1.4.4.3 1.3.4 2.5.4v1.3H154v-1.3h1.8v1.3h-10.9v-1.3c1.1 0 1.9-.1 2.4-.3.5-.3.8-.7.9-1.2.1-.5.2-2.1.2-4.7v-7.4c0-1.4-.1-2.5-.3-3.3-.2-.7-.6-1.4-1.3-1.9-.7-.6-1.7-.8-2.8-.8-1.2 0-2.3.4-3.5 1.1-1.2.8-2.3 2-3.5 3.6v8.7c0 2.3 0 3.8.1 4.4 0 .6.3 1 .7 1.4.5.3 1.2.4 2.4.4v1.3h-10.6v-1.3c1.2 0 2-.1 2.5-.3.4-.3.7-.7.8-1.2.2-.5.2-2.1.2-4.7v-6.1c0-2 0-3.3-.2-4.2-.2-.9-.6-1.6-1.4-2.2-.7-.6-1.7-1-2.8-1-1.1 0-2.3.4-3.4 1.1-1.2.7-2.3 1.8-3.5 3.2v9.2c0 2.4 0 3.9.1 4.4 0 .6.3 1.1.8 1.4.4.3 1.3.4 2.5.4v1.3h-10.8v-1.3c1.2 0 2-.1 2.5-.3.5-.3.8-.7.9-1.2.1-.5.1-2.1.1-4.7v-6.6c0-2.5 0-4-.1-4.6-.1-.6-.3-1-.8-1.3-.5-.3-1.3-.4-2.6-.4v-1.2c2.6-.3 4.7-.7 6.3-1.2zm93.1 8.3h-15.2c-.1 1-.1 1.8-.1 2.3 0 3.9.6 6.8 1.8 8.7 1.2 1.9 3 2.9 5.4 2.9 3.2 0 5.5-1.4 6.9-4.4h1.2c-.5 1.9-1.7 3.3-3.4 4.3-1.6 1-3.5 1.6-5.5 1.6-1.8 0-3.6-.5-5.3-1.4-1.6-1-3-2.3-4-4-1.1-1.7-1.6-3.8-1.6-6.3 0-3.4 1-6.3 3.1-8.6 2-2.3 4.5-3.4 7.6-3.4 2.9 0 5.1.8 6.7 2.6 1.5 1.7 2.4 3.6 2.4 5.7zm-4.6-1.1v-1.1c0-1.6-.4-2.8-1.3-3.6-1-.9-2.1-1.4-3.4-1.4-3.3 0-5.2 2.1-5.8 6.1zm12.6-1.6c.6-1.6 1.5-3 2.9-4 1.4-1.1 2.7-1.6 4-1.6 1.2 0 2.1.3 2.8 1.1.7.7 1 1.4 1 2.2 0 .5-.2 1-.5 1.4-.4.3-.8.5-1.3.5-.9 0-1.6-.6-2-2-.3-.9-.8-1.3-1.5-1.3s-1.6.5-2.7 1.6c-1.1 1-1.8 2.1-2.1 3.2-.3 1.1-.4 2.7-.4 4.6v8.4c.1.6.4 1 .8 1.4.5.3 1.3.4 2.4.4h.8v1.3h-11.7v-1.3h.6c1 0 1.8-.1 2.2-.4.5-.3.8-.7.9-1.2.1-.6.1-2.1.1-4.6v-6.2c0-2.4 0-3.9-.1-4.4 0-.7-.3-1.1-.7-1.4-.5-.4-1.3-.5-2.4-.5h-.6v-1.2c1.7-.2 3.9-.8 6.6-1.6.5 1.4.8 3.2.9 5.6zm28 11.8h1.2c-1.2 4.2-4.3 6.3-9.1 6.3-3.2 0-5.8-1.1-7.9-3.2-2.1-2.2-3.2-5-3.2-8.5s1.1-6.5 3.4-8.7c2.3-2.2 5.1-3.3 8.2-3.3 1.9 0 3.6.4 5.2 1.2 1.6.9 2.4 1.9 2.4 3.1 0 .4-.1.8-.5 1.2-.2.4-.7.6-1.2.6-1.2 0-1.9-.7-2.2-2.1-.2-1-.5-1.7-1-2.1-.4-.4-1.3-.6-2.7-.6-2.4 0-4.2.8-5.4 2.4-1.2 1.7-1.8 4.2-1.8 7.5 0 3.5.7 6.2 2 8.1 1.3 2 3.2 2.9 5.8 2.9 3.6 0 5.8-1.6 6.8-4.8zm3.4-28.6c0-.8.3-1.4.8-2 .6-.5 1.2-.8 2-.8s1.4.3 1.9.8c.6.6.8 1.2.8 2s-.2 1.4-.8 2c-.5.5-1.1.8-1.9.8-.8 0-1.4-.3-2-.8-.5-.6-.8-1.2-.8-2zm5.2 11.2V304c0 2.3 0 3.8.1 4.4 0 .6.3 1 .7 1.4.5.3 1.3.4 2.4.4h.6v1.3h-11.8v-1.3h.9c1.3 0 2.1-.1 2.5-.5.4-.4.6-.8.6-1.3.1-.5.1-2 .1-4.4v-6.7c0-2.6-.1-4.1-.3-4.7-.3-.6-.6-.9-1-1.1-.4-.1-1.1-.2-2.1-.2h-.7v-1.2c3.2-.3 5.6-.8 7.4-1.4zm26.2 18.8h1c-.1 1.1-.3 2-.7 2.7.5-.1.9-.2 1.1-.4.5-.3.8-.7.8-1.2.1-.6.2-2.1.2-4.6v-21.7c0-2.3-.2-3.8-.6-4.4-.4-.6-1.4-.9-3-.9v-1.2c1.1 0 2.3-.1 3.8-.4 1.5-.2 2.5-.5 3-.7h.6V304c0 2.3.1 3.8.1 4.4.1.6.3 1 .8 1.4.4.3 1.2.4 2.4.4h.6v1.3h-11.1c-.7.3-1.5.5-2.5.5-1.2 0-2.2-.3-2.9-.9-.7-.7-1.1-1.6-1.3-2.9-1.8 1.3-3.5 2.2-4.9 2.9-1.5.6-2.8.9-4 .9-1.5 0-2.7-.4-3.8-1.3-1.1-.8-1.6-1.9-1.6-3.4 0-1.8.9-3.4 2.7-4.8 1.8-1.3 4.2-2.7 7.4-4l4.2-1.7v-1c0-1.6-.1-2.7-.3-3.3-.2-.7-.7-1.3-1.6-1.8-.8-.6-1.9-.9-3.2-.9-2.7 0-4.2.9-4.5 2.7-.3 1.8-1 2.8-2.2 2.8-1.1 0-1.7-.6-1.7-1.6s.8-2.1 2.2-3.3c1.5-1.1 3.7-1.7 6.8-1.7 2.2 0 4 .3 5.2 1 1.3.8 2.1 1.6 2.5 2.5.4.9.6 2.3.6 4.2v8.8c0 2.1.1 3.4.3 4 .2.6.7.9 1.4.9 1.2 0 1.9-.9 2.2-2.6zm-7.7-9.4l-3 1.2c-4.6 1.8-6.9 4.2-6.9 7 0 1.2.3 2.1.9 2.8.6.6 1.4 1 2.3 1 .9 0 1.8-.3 2.9-.9 1.1-.5 2.4-1.3 3.8-2.4zm42.6-6.6c1.5-1.7 3-2.6 4.6-2.6.8 0 1.5.2 2 .7.1.1.2.3.3.4 1.4-.3 3.1-.7 5.1-1.3.6 1.4.8 3.2.9 5.6.6-1.6 1.6-3 2.9-4 1.4-1.1 2.7-1.6 4-1.6 1.2 0 2.2.3 2.8 1.1.7.7 1 1.4 1 2.2 0 .5-.1 1-.5 1.4-.3.3-.7.5-1.2.5-.9 0-1.6-.6-2.1-2-.3-.9-.8-1.3-1.4-1.3-.8 0-1.7.5-2.8 1.6-1.1 1-1.7 2.1-2 3.2-.3 1.1-.5 2.7-.5 4.6v4c0 2.3 0 3.8.1 4.4.1.6.3 1 .8 1.4.4.3 1.2.4 2.3.4h.8v1.3h-11.6v-1.3h.5c1.1 0 1.8-.1 2.3-.4.5-.3.7-.7.8-1.2.1-.6.2-2.1.2-4.6v-6.2c0-2.4-.1-3.9-.2-4.4 0-.7-.3-1.1-.7-1.4-.3-.2-.6-.4-1.1-.5-.2.9-.7 1.4-1.6 1.4-.6 0-1.1-.4-1.6-1.1-.3-.7-.8-1-1.2-1-.7 0-1.4.4-2.2 1.4.9 1.4 1.4 3 1.4 4.6 0 2.2-.8 4.1-2.3 5.7-1.6 1.7-4.2 2.6-7.8 2.7-3.8.1-5.7.9-5.7 2.3 0 .6.5 1.1 1.3 1.4.8.3 2.6.5 5.3.6 2.9.2 5.2.4 6.8.8 1.6.4 2.9 1.2 3.8 2.5.9 1.2 1.4 2.6 1.4 4.3 0 2.3-.9 4.2-2.9 5.7-1.9 1.4-4.7 2.2-8.3 2.2-3.3 0-6-.7-8-2s-3-2.9-3-4.8c0-1.1.3-2 .9-2.7.6-.7 1.4-1.1 2.4-1.1.3 0 .6.1.8.2-1.1 1.2-1.7 2.5-1.7 3.8 0 1.6.8 2.9 2.2 3.9 1.5 1 3.7 1.6 6.6 1.6 2.7 0 4.7-.6 6.1-1.6 1.5-1.1 2.2-2.4 2.2-4 0-1.8-.6-3-1.9-3.8-1.3-.7-3.7-1.1-7-1.3-3.8-.1-6.3-.6-7.5-1.4-1.1-.7-1.7-1.7-1.7-3 0-2.3 1.7-3.8 4.9-4.4-1.7-1-2.9-2.1-3.8-3.4-.9-1.3-1.3-2.7-1.3-4.3 0-2.2.9-4.1 2.6-5.7 1.8-1.5 3.9-2.3 6.3-2.3 3 0 5.4.9 7.2 2.8zm-12.1 5.8c0 2.3.5 4 1.4 5.1 1 1 2.2 1.6 3.7 1.6 1.3 0 2.5-.5 3.4-1.6 1-1.1 1.5-2.9 1.5-5.5 0-2.7-.5-4.5-1.5-5.5-1.1-1-2.2-1.5-3.5-1.5-1.7 0-2.9.6-3.7 1.8-.9 1.3-1.3 3.1-1.3 5.6zm34.1 3.2c0-3.4 1.1-6.2 3.4-8.4 2.2-2.3 5-3.4 8.3-3.4 3.3 0 6.1 1.1 8.3 3.4 2.2 2.2 3.4 5 3.4 8.4 0 3.7-1.2 6.6-3.5 8.7-2.2 2.1-5 3.2-8.2 3.2-3.3 0-6-1.1-8.3-3.3-2.3-2.1-3.4-5-3.4-8.6zm4.5.1c0 3.9.6 6.6 1.9 8.2 1.2 1.5 3 2.3 5.3 2.3s4.1-.8 5.3-2.3c1.3-1.6 1.9-4.3 1.9-8.2 0-3.8-.6-6.6-1.8-8.2-1.3-1.7-3.1-2.5-5.4-2.5-2.4 0-4.2.8-5.4 2.5-1.2 1.6-1.8 4.3-1.8 8.2zm40.9-11v14.3c0 2.4 0 3.9.1 4.5 0 .6.3 1.1.7 1.4.5.3 1.3.4 2.5.4v1.3c-2.7 0-4.7.3-5.9.8h-.4c-.5-1-.8-2.7-.9-5.1-1.1 1.7-2.3 3-3.7 3.9-1.4.8-3 1.3-4.7 1.3-1.4 0-2.7-.4-3.8-1-1.2-.7-1.9-1.5-2.4-2.5-.4-1-.6-2.4-.6-4.4v-7.4c0-2.6 0-4.1-.1-4.7-.1-.5-.4-.9-.9-1.2-.4-.3-1.3-.4-2.6-.4v-1.2h7.5v15.2c0 1.5.1 2.5.2 3.2.2.7.7 1.3 1.4 1.8s1.6.8 2.6.8c1.3 0 2.6-.5 3.9-1.4 1.2-.9 2.1-1.8 2.5-2.8.5-1.1.7-2.5.7-4.4v-4.9c0-2.4 0-3.9-.1-4.4 0-.5-.2-1-.7-1.3-.3-.4-1.2-.6-2.4-.6h-.6v-1.2zm7.1-.9h.7c.3 1 .5 2.2.5 3.6 1.1-1.2 2.3-2.1 3.6-2.7 1.3-.6 2.7-.9 4.2-.9 3 0 5.6 1 7.6 3.2 2 2.1 3 4.9 3 8.4 0 3.4-1 6.3-3.1 8.6-2 2.3-4.6 3.5-7.9 3.5-1.4 0-2.7-.3-3.9-.9-1.3-.5-2.4-1.3-3.5-2.4v8.3c0 2.6 0 4.1.1 4.7.1.5.4.9.9 1.2.4.3 1.3.4 2.5.4v1.3h-11.4v-1.3h.8c1.3 0 2.1-.2 2.5-.5.4-.4.6-.8.6-1.3.1-.5.1-2 .1-4.5v-19.9c0-2.3 0-3.8-.1-4.4 0-.6-.3-1.1-.7-1.4-.5-.3-1.3-.5-2.4-.5h-.8V290c1.8-.2 4-.6 6.7-1.3zm1.2 18.6c.9 1.2 1.9 2.1 3 2.7 1.1.6 2.2.9 3.4.9 2.1 0 3.8-.9 5.3-2.6 1.5-1.7 2.3-4.5 2.3-8.3 0-3.2-.8-5.7-2.2-7.3-1.5-1.6-3.2-2.4-5.2-2.4-1.2 0-2.4.3-3.5.9-1.1.6-2.1 1.6-3.1 2.8zm44.9-.8l-.2 5H426v-.6h.5c.7 0 1.2-.1 1.5-.3.3-.2.4-.4.5-.8.1-.4.1-1.3.1-2.7v-8.2c0-1.3 0-2.2-.1-2.6-.1-.4-.2-.6-.5-.8-.2-.1-.8-.2-1.6-.2h-.4v-.6h8v.6h-.7c-.8 0-1.4.1-1.6.2-.3.1-.4.4-.5.7-.1.4-.2 1.3-.2 2.7v8.8c0 1.2.1 1.9.1 2.2.1.3.3.6.6.8.3.1.9.2 1.9.2h1.2c1.1 0 1.8-.1 2.3-.3.5-.2 1-.5 1.4-1.2.5-.6.9-1.5 1.3-2.9zm15 0l-.1 5H441v-.6h.5c.7 0 1.2-.1 1.5-.3.3-.2.5-.4.5-.8.1-.4.2-1.3.2-2.7v-8.2c0-1.3-.1-2.2-.2-2.6 0-.4-.2-.6-.5-.8-.2-.1-.7-.2-1.6-.2h-.4v-.6h8.1v.6h-.8c-.8 0-1.3.1-1.6.2-.2.1-.4.4-.5.7-.1.4-.1 1.3-.1 2.7v8.8c0 1.2 0 1.9.1 2.2 0 .3.2.6.5.8.3.1.9.2 1.9.2h1.3c1 0 1.8-.1 2.3-.3.5-.2.9-.5 1.4-1.2.4-.6.8-1.5 1.2-2.9zm15.3-1.3h.5v5.8h-.5c-.1-.6-.4-1.2-.8-1.7-1.5 1.6-3.4 2.5-5.6 2.5-2.5 0-4.4-.8-6-2.3-1.5-1.6-2.3-3.6-2.3-6.1 0-1.7.4-3.2 1.1-4.7.7-1.4 1.7-2.5 2.9-3.2 1.3-.7 2.7-1.1 4.2-1.1 1.3 0 2.4.3 3.4.8s1.8 1.1 2.3 1.7c.4-.7.6-1.4.6-2.2h.6l.1 6.4h-.5c-.4-2.3-1.1-3.9-2.3-4.7-1.1-.9-2.4-1.4-3.8-1.4-1.8 0-3.2.8-4.2 2.2-1 1.4-1.6 3.4-1.6 6.1 0 2.5.6 4.4 1.7 5.8 1.2 1.3 2.6 2 4.2 2 .9 0 1.9-.2 2.8-.7.9-.4 1.7-1.2 2.2-2.2.6-1 .9-2 1-3zM109.3 192.6c18.4 0 26.1-7.3 26.1-21 0-11.2-6.3-21-22.3-21-4.1 0-7.8.6-9.5 1.6-1.5 1-2.2 2.8-2.2 8.2v32.2zm-7.9 39c0 11.8 3.2 14.9 13.9 14.9 13.8-.1 26-7 26-24.1 0-16.9-11.7-24.3-32.1-24.3h-7.7zm124.1 6.5c-10.5 13-22.1 15.9-27.3 15.9-20.6 0-32.6-16.4-32.6-35-.1-10.6 3.8-20.9 11-28.7 6.9-7.6 16-12 24.5-12h.2c13.9 0 25.1 12.1 25.1 25 0 3.3-.9 4.6-3.9 5.2-2.8.5-23.8 2.2-43.7 2.8.2 22.4 13.3 31.6 25 31.6 6.7 0 13-2.7 19.1-8.2zm-28.4-53.7c-7.6 0-14.9 6.9-17.4 20.2 9.3 0 18.5-.2 28.3-.5 3 0 4-1 4-3.3.1-8.5-5.6-16.4-14.8-16.4zm88.5 69.6c-2.9-.2-5.6-1.3-7.9-3.1-1.9-2.1-3.3-4.6-4-7.4C267 247.9 259 254 254 254c-11.1.1-20.1-8.9-20.1-20 0-8 4.3-13.1 13.5-16.2 10-3.3 22.3-7.8 26-10.7v-3c0-11.8-5.6-18.6-14-18.6-2.9-.1-5.7 1.1-7.6 3.3-2.1 2.2-3.6 5.8-5 10.7-.3 2.4-2.4 4.1-4.8 3.9-3 0-7.4-3.2-7.4-7 0-2.5 2.2-4.3 5.4-6.6 4.7-3.3 15.5-9.7 25.1-11.5 4.9-.1 9.8 1.5 13.7 4.4 5.9 4.8 7.6 11.5 7.6 20v30.6c0 7.4 3 9.8 5.8 9.8 2.1-.1 4.2-.7 6-1.8l1.7 4.3zm-12.2-41.4c-3.5 1.9-11.6 5.3-15.1 6.9-6.5 3-10.2 6.1-10.2 12 0 8.6 6.7 12.7 11.9 12.7 4.3-.2 10.2-3 13.4-5.9zm32.8 39.5v-3.7c9.2-.9 10.5-1.7 10.5-11.1v-67.1c0-9.7-.9-10.1-10-10.8V156c7.2-1 14.4-2.7 21.4-5v86.3c0 9.3 1.1 10.2 10.4 11v3.7z" fill="#0b1073"/><path stroke="2px solid #0b1073" d="M70.4 264.8h402.9"/></svg>