<svg xmlns="http://www.w3.org/2000/svg" height="500" width="500" viewBox="177.8 115.7 315 315.8"><path d="M335.3 135.8c6.3.1 12.5 2.5 17.3 6.8 2.4 2.1 4.4 4.8 5.7 7.7 1.4 3 2.2 6.2 2.3 9.5.2 6.6-2.4 13.3-7.1 18.2-4.7 4.9-11.4 7.8-18.2 8-6.8.2-13.8-2.4-18.9-7.3-2.5-2.4-4.6-5.4-5.9-8.6-1.4-3.3-2-6.8-1.9-10.3.1-3.5 1-7 2.5-10.1 1.6-3.1 3.7-5.8 6.3-7.9 5.1-4.1 11.6-6.1 17.9-6zm0 .6c-3.1.1-6.1.8-8.8 2.2-2.7 1.4-5 3.3-6.9 5.6-3.7 4.6-5.3 10.2-5.1 15.7.2 5.5 2.3 10.7 6.1 14.7 3.7 4 9.1 6.5 14.7 6.7 5.6.2 11.3-2 15.4-6 4.2-3.9 6.7-9.5 6.9-15.4.2-5.8-1.8-11.8-5.9-16.4-2-2.3-4.6-4.1-7.4-5.3-2.8-1.2-5.9-1.8-9-1.8z" fill="#ec3686"/><path d="M317.8 223.8c-3.3-4.8-6.7-9.3-10.6-13.4-3.8-4-8-7.6-12.5-10.8-4.5-3.1-9.3-5.9-14.4-8.2-5.1-2.4-10.4-4.4-15.9-6.5 5.9-.3 11.8.5 17.5 2.1 5.7 1.7 11.2 4.3 16.2 7.7 4.9 3.5 9.3 7.8 12.7 12.7 3.5 5.1 5.9 10.6 7 16.4zm17.7 63.2c-.4-13 .1-26.1 2.9-39 1.3-6.5 3.4-12.8 5.9-19 2.6-6.1 5.9-12 9.6-17.5 3.8-5.5 8.2-10.5 13.1-15s10.2-8.5 15.8-12c1.4-.8 2.8-1.7 4.3-2.5 1.4-.8 2.9-1.6 4.4-2.3 1.5-.8 3-1.4 4.5-2.1l2.2-1 6.9-2.7c1.5-.5 3.1-1.1 4.6-1.6 3.1-1.1 6.3-1.8 9.4-2.7-11.8 5.5-23.3 11.4-33.6 18.8-5.1 3.8-10.1 7.7-14.5 12.2-1.1 1.1-2.2 2.3-3.3 3.4l-3.1 3.5c-1 1.2-2 2.4-3 3.7-1 1.2-1.8 2.5-2.8 3.8-7.3 10.2-12.4 21.9-15.9 34.1-3.5 12.2-5.3 25-7.4 37.9z" fill="#c4e661"/><path d="M425.2 306.9c-3.7 2.7-7.6 5.1-11.7 7.3-1 .5-2.1 1.1-3.1 1.6l-4.8 2.1-1.6.6-3.3 1.2c-2.2.8-4.5 1.4-6.7 2l-3.5.8c-1.2.3-2.3.5-3.5.7-4.7.8-9.4 1.3-14.3 1.1l-3.6-.1c-1.2-.1-2.4-.3-3.6-.4-1.2-.2-2.4-.3-3.6-.5l-3.6-.7c-.6-.1-1.2-.2-1.8-.4l-1.7-.5-3.5-1.1-3.4-1.3-1.7-.7-1.6-.7-3.2-1.5-3.1-1.5c-2.1-1-4.1-2.1-6.1-3.1-3.9-2.2-7.7-4.2-11.5-6-3.8-1.7-7.6-3.1-11.5-4.1-1.9-.6-3.9-.8-5.9-1.2l-.7-.1-.8-.1-4.5-.3c-2.1 0-4.1 0-6.2.1l-3.1.2-1.6.1c-.5 0-1 .1-1.6.2-2.1.3-4.2.5-6.3 1l-3.1.6-3.1.8c-4.2 1-8.3 2.4-12.4 3.9-8.2 3-16.3 6.7-24.2 10.9h-.1c-.2.1-.4 0-.5-.1-.1-.2 0-.3.1-.4 7.2-5.4 15-9.9 23.1-13.8 8.2-3.8 16.7-6.7 25.6-8.3.6-.1 1.1-.2 1.7-.3l5.1-.6c2.2-.2 4.5-.2 6.8-.4l3.4.1 1.7.1h.8l.8.1c2.2.3 4.5.5 6.7 1.1 1.1.3 2.2.5 3.3.8l3.2 1c1.1.3 2.1.7 3.2 1.2 1 .4 2.1.8 3.1 1.3 4.1 1.8 8.1 3.9 12 6.1 2 1 3.9 2.1 5.9 3.1l3 1.5 4.5 2.1 1.5.6 3.1 1.2 4.8 1.5c.5.1 1.1.3 1.6.4 8.6 2.2 17.6 2.5 26.4 1.5 8.8-1 17.5-3.5 25.7-7l1.5-.6 4.5-2.1c2-1 4-2 5.9-3.2 3.9-2.2 7.6-4.6 11.1-7.4.2-.1.4-.1.5.1 0 .2 0 .4-.2.5-3.1 3.3-6.7 6.2-10.3 9zm-180.1 62.8H242v-24.3h-8.6v-2.8h20.3v2.8h-8.6zm21.5-20.7c.9 0 1.7 0 2.4.2l-.4 2.9c-.8-.2-1.6-.3-2.2-.3-1.7 0-3.1.6-4.3 2-1.1 1.3-1.7 3-1.7 5v10.9h-3.1v-20.4h2.6l.3 3.8h.2c.7-1.3 1.6-2.3 2.7-3.1 1.1-.7 2.2-1 3.5-1zm9.4 20.7h-3.1v-20.4h3.1zm-3.4-25.9c0-.7.2-1.2.6-1.5.3-.3.7-.5 1.3-.5.5 0 .9.2 1.2.5.4.3.6.8.6 1.5s-.2 1.2-.6 1.6c-.3.3-.7.5-1.2.5-.6 0-1-.2-1.3-.5-.4-.4-.6-.9-.6-1.6zm23 20.3c0 1.9-.7 3.4-2.1 4.4-1.4 1-3.4 1.6-6 1.6-2.7 0-4.8-.5-6.3-1.3v-2.9c1 .5 2.1.9 3.2 1.2 1.1.3 2.2.4 3.2.4 1.6 0 2.9-.2 3.7-.8.9-.5 1.3-1.3 1.3-2.3 0-.8-.3-1.5-1-2-.7-.6-2-1.3-4-2-1.9-.7-3.3-1.4-4.1-1.9-.8-.5-1.3-1.1-1.7-1.8-.4-.6-.6-1.4-.6-2.4 0-1.6.7-2.9 2-3.9 1.4-.9 3.2-1.4 5.6-1.4 2.1 0 4.3.4 6.4 1.3l-1.1 2.5c-2.1-.8-3.9-1.2-5.6-1.2-1.4 0-2.5.2-3.3.6-.7.5-1.1 1.1-1.1 1.9 0 .6.1 1 .4 1.4.3.4.8.8 1.4 1.1.6.4 1.8.9 3.5 1.5 2.5.9 4.1 1.8 4.9 2.7.9.9 1.3 2 1.3 3.3zm18.9 5.6v-13.2c0-1.6-.4-2.9-1.1-3.7-.8-.8-2-1.2-3.6-1.2-2.1 0-3.7.6-4.7 1.7-.9 1.2-1.4 3.1-1.4 5.7v10.7h-3.1v-28.9h3.1v8.7c0 1.1-.1 2-.2 2.7h.2c.6-1 1.5-1.8 2.6-2.3 1.1-.6 2.4-.9 3.8-.9 2.5 0 4.4.6 5.6 1.8 1.3 1.2 1.9 3 1.9 5.6v13.3zm36.8 0l-3.4-8.6H337l-3.3 8.6h-3.2l10.7-27.3h2.7l10.6 27.3zm-4.4-11.5l-3.1-8.4c-.4-1.1-.9-2.4-1.3-3.9-.3 1.2-.7 2.5-1.2 3.9l-3.2 8.4zm24.8 11.5v-13.2c0-1.6-.3-2.9-1.1-3.7-.8-.8-1.9-1.2-3.5-1.2-2.2 0-3.7.6-4.7 1.7-1 1.2-1.5 3.1-1.5 5.7v10.7h-3.1v-20.4h2.5l.5 2.8h.2c.6-1 1.5-1.7 2.6-2.3 1.2-.5 2.4-.8 3.8-.8 2.5 0 4.3.6 5.6 1.8 1.2 1.1 1.8 3 1.8 5.6v13.3zm16-2.2c.5 0 1.1 0 1.6-.1s.9-.2 1.2-.3v2.4c-.4.2-.9.3-1.5.4-.7.1-1.2.2-1.8.2-3.9 0-5.9-2.1-5.9-6.3v-12.1h-2.9v-1.4l2.9-1.3 1.3-4.4h1.8v4.7h5.9v2.4h-5.9v12c0 1.2.3 2.2.9 2.8.6.7 1.4 1 2.4 1zm24.4-8c0 3.3-.8 5.9-2.5 7.8-1.7 1.8-4 2.8-6.9 2.8-1.8 0-3.5-.5-4.9-1.3-1.4-.9-2.5-2.1-3.2-3.7-.8-1.6-1.2-3.5-1.2-5.6 0-3.3.8-5.9 2.5-7.7 1.7-1.9 4-2.8 6.9-2.8 2.9 0 5.1.9 6.8 2.8 1.7 1.9 2.5 4.5 2.5 7.7zm-15.5 0c0 2.6.5 4.6 1.6 5.9 1 1.4 2.5 2.1 4.6 2.1 2 0 3.5-.7 4.5-2 1.1-1.4 1.6-3.4 1.6-6s-.5-4.6-1.6-5.9c-1-1.3-2.5-2-4.6-2-2 0-3.5.7-4.5 2-1.1 1.3-1.6 3.3-1.6 5.9zm34.9 10.2v-13.2c0-1.6-.4-2.9-1.2-3.7-.7-.8-1.9-1.2-3.5-1.2-2.1 0-3.7.6-4.7 1.7-1 1.2-1.5 3.1-1.5 5.7v10.7h-3v-20.4h2.5l.5 2.8h.1c.6-1 1.5-1.7 2.7-2.3 1.1-.5 2.4-.8 3.8-.8 2.4 0 4.3.6 5.5 1.8 1.2 1.1 1.9 3 1.9 5.6v13.3zm-178.6 24.9c0 2.9-.7 5.3-2.2 7-1.5 1.7-3.6 2.6-6.2 2.6s-4.6-.9-6.1-2.6c-1.5-1.7-2.2-4.1-2.2-7.1 0-2.9.7-5.3 2.2-7 1.5-1.7 3.6-2.6 6.2-2.6s4.6.9 6.1 2.6c1.5 1.7 2.2 4.1 2.2 7.1zm-15.3 0c0 2.6.6 4.7 1.8 6.2 1.2 1.4 2.9 2.2 5.1 2.2 2.3 0 4-.8 5.2-2.2 1.2-1.5 1.8-3.5 1.8-6.2s-.6-4.8-1.8-6.2c-1.2-1.5-2.9-2.2-5.1-2.2-2.3 0-4 .7-5.2 2.2-1.2 1.4-1.8 3.5-1.8 6.2zm24.7-4.8c.6 0 1.3 0 1.9.1l-.2 1.3c-.6-.2-1.2-.3-1.8-.3-1.2 0-2.2.5-2.9 1.6-.8 1-1.2 2.2-1.2 3.8v7.6h-1.2V390h1l.2 2.5h.1c.5-1 1.1-1.7 1.8-2.1.6-.4 1.4-.6 2.3-.6zm15.6.2v.9l-2.9.2c.8 1 1.2 2 1.2 3.1 0 1.4-.5 2.5-1.4 3.3-.9.8-2.1 1.2-3.6 1.2h-1.3c-.5.2-.9.5-1.1.9-.3.4-.4.7-.4 1.1 0 .5.1.8.5 1 .3.2.9.3 1.7.3h2.4c1.5 0 2.7.3 3.5.9.8.7 1.2 1.6 1.2 2.7 0 1.5-.6 2.6-1.8 3.4-1.2.8-2.9 1.2-5.1 1.2-1.8 0-3.1-.3-4.1-1-.9-.6-1.4-1.6-1.4-2.8 0-.9.3-1.7.9-2.4.6-.6 1.4-1 2.4-1.3-.4-.1-.8-.4-1-.7-.3-.3-.4-.7-.4-1.2 0-.9.6-1.7 1.8-2.4-.8-.3-1.5-.9-1.9-1.6-.5-.7-.7-1.5-.7-2.4 0-1.4.5-2.5 1.3-3.4.9-.8 2.1-1.2 3.6-1.2.9 0 1.6.1 2.1.2zm-11.3 16.3c0 1.9 1.5 2.9 4.3 2.9 3.6 0 5.5-1.2 5.5-3.5 0-.9-.3-1.5-.9-1.8-.6-.4-1.5-.6-2.8-.6h-2.2c-2.6 0-3.9 1-3.9 3zm1.1-11.9c0 1 .3 1.9 1 2.5.6.6 1.5.9 2.6.9 1.2 0 2-.3 2.7-.9.6-.6.9-1.5.9-2.6 0-1.2-.3-2-1-2.6-.6-.6-1.5-.9-2.6-.9s-2 .3-2.7.9c-.6.7-.9 1.5-.9 2.7zm21.5 9.5l-.3-2.2h-.1c-.7.9-1.4 1.6-2.2 1.9-.7.4-1.6.6-2.6.6-1.4 0-2.4-.4-3.2-1-.7-.7-1.1-1.7-1.1-3s.5-2.4 1.7-3.1c1.1-.8 2.7-1.2 4.9-1.2l2.6-.1v-.9c0-1.3-.2-2.3-.8-3-.5-.7-1.4-1-2.6-1-1.3 0-2.6.4-4 1.1l-.4-1.1c1.5-.7 3-1.1 4.5-1.1s2.6.4 3.4 1.2c.8.8 1.1 2 1.1 3.7v9.2zm-5.1-.9c1.5 0 2.6-.4 3.5-1.2.9-.9 1.3-2.1 1.3-3.6v-1.3l-2.4.1c-2 .1-3.4.4-4.2.9-.9.5-1.3 1.3-1.3 2.4 0 .9.3 1.5.8 2 .6.5 1.3.7 2.3.7zm20.2.9v-9c0-1.4-.3-2.4-.9-3-.5-.7-1.5-1-2.7-1-1.7 0-2.9.4-3.7 1.3-.7.8-1.1 2.2-1.1 4.1v7.6h-1.3V390h1.1l.2 1.9h.1c.9-1.4 2.5-2.1 4.8-2.1 3.2 0 4.8 1.7 4.8 5v9.1zm7 0h-1.2V390h1.2zm-1.4-17.7c0-.8.3-1.3.8-1.3.3 0 .5.2.6.4.2.2.3.5.3.9s-.1.7-.3.9c-.1.2-.3.3-.6.3-.5 0-.8-.4-.8-1.2zm11.7 18c-2 0-3.6-.6-4.7-1.9-1.1-1.2-1.7-3-1.7-5.2 0-2.3.6-4.1 1.8-5.4 1.1-1.3 2.7-1.9 4.8-1.9 1.2 0 2.3.2 3.4.6l-.3 1.1c-1.2-.4-2.3-.6-3.2-.6-1.7 0-3 .5-3.8 1.6-.9 1.1-1.4 2.6-1.4 4.5s.5 3.4 1.4 4.5c.8 1 2.1 1.5 3.6 1.5 1.3 0 2.5-.2 3.6-.6v1.1c-.9.5-2.1.7-3.5.7zm22.3-.3l-7-17.2h-.1c0 1 .1 2.1.1 3.2v14h-1.3v-18.7h2l6.7 16.5h.1l6.6-16.5h2v18.7h-1.4v-14.1c0-1 .1-2 .2-3.1h-.1l-7 17.2zm22.5 0l-.3-2.2h-.1c-.7.9-1.4 1.6-2.2 1.9-.7.4-1.6.6-2.6.6-1.3 0-2.4-.4-3.2-1-.7-.7-1.1-1.7-1.1-3s.6-2.4 1.7-3.1c1.1-.8 2.8-1.2 4.9-1.2l2.7-.1v-.9c0-1.3-.3-2.3-.9-3-.5-.7-1.4-1-2.6-1-1.2 0-2.6.4-4 1.1l-.4-1.1c1.5-.7 3-1.1 4.5-1.1s2.7.4 3.4 1.2c.8.8 1.2 2 1.2 3.7v9.2zm-5.1-.9c1.5 0 2.7-.4 3.5-1.2.9-.9 1.3-2.1 1.3-3.6v-1.3l-2.4.1c-2 .1-3.4.4-4.2.9-.8.5-1.3 1.3-1.3 2.4 0 .9.3 1.5.8 2 .6.5 1.3.7 2.3.7zm19.2-2.7c0 1.3-.5 2.2-1.5 2.9-.9.7-2.2 1-4 1-1.8 0-3.3-.3-4.4-.9V402c1.4.7 2.9 1 4.4 1 1.4 0 2.4-.2 3.1-.7.8-.4 1.1-1 1.1-1.8 0-.7-.3-1.3-.8-1.8-.6-.4-1.5-.9-2.8-1.4-1.4-.5-2.4-.9-3-1.2-.5-.4-1-.8-1.2-1.3-.3-.4-.5-1-.5-1.7 0-1 .5-1.8 1.3-2.4.9-.6 2.1-.9 3.7-.9 1.5 0 2.9.3 4.3.8l-.5 1.2c-1.4-.6-2.6-.9-3.8-.9-1.1 0-2 .2-2.7.6-.7.4-1 .9-1 1.5 0 .8.3 1.3.8 1.8.5.4 1.5.9 3 1.4 1.3.5 2.2.9 2.8 1.3.5.3 1 .7 1.2 1.2.3.5.5 1 .5 1.6zm12.1 0c0 1.3-.4 2.2-1.4 2.9-.9.7-2.3 1-4 1-1.9 0-3.3-.3-4.4-.9V402c1.4.7 2.8 1 4.4 1 1.4 0 2.4-.2 3.1-.7.7-.4 1.1-1 1.1-1.8 0-.7-.3-1.3-.9-1.8-.5-.4-1.5-.9-2.8-1.4-1.3-.5-2.3-.9-2.9-1.2-.5-.4-1-.8-1.3-1.3-.2-.4-.4-1-.4-1.7 0-1 .5-1.8 1.3-2.4.9-.6 2.1-.9 3.7-.9 1.5 0 2.9.3 4.3.8l-.5 1.2c-1.4-.6-2.6-.9-3.8-.9-1.1 0-2 .2-2.7.6-.7.4-1 .9-1 1.5 0 .8.3 1.3.8 1.8.5.4 1.5.9 3 1.4 1.2.5 2.2.9 2.7 1.3.6.3 1 .7 1.3 1.2.3.5.4 1 .4 1.6zm12 3.6l-.3-2.2h-.1c-.7.9-1.4 1.6-2.1 1.9-.8.4-1.6.6-2.6.6-1.4 0-2.5-.4-3.2-1-.8-.7-1.2-1.7-1.2-3s.6-2.4 1.7-3.1c1.2-.8 2.8-1.2 4.9-1.2l2.7-.1v-.9c0-1.3-.3-2.3-.8-3-.6-.7-1.4-1-2.6-1-1.3 0-2.6.4-4 1.1l-.5-1.1c1.5-.7 3-1.1 4.5-1.1 1.6 0 2.7.4 3.4 1.2.8.8 1.2 2 1.2 3.7v9.2zm-5.1-.9c1.5 0 2.7-.4 3.5-1.2.9-.9 1.3-2.1 1.3-3.6v-1.3l-2.4.1c-2 .1-3.4.4-4.2.9-.8.5-1.2 1.3-1.2 2.4 0 .9.2 1.5.8 2 .5.5 1.3.7 2.2.7zm21.4-13v.9l-2.9.2c.8 1 1.2 2 1.2 3.1 0 1.4-.5 2.5-1.4 3.3-.8.8-2 1.2-3.5 1.2h-1.4c-.5.2-.9.5-1.1.9-.3.4-.4.7-.4 1.1 0 .5.2.8.5 1 .3.2.9.3 1.7.3h2.4c1.5 0 2.7.3 3.5.9.8.7 1.2 1.6 1.2 2.7 0 1.5-.6 2.6-1.8 3.4-1.2.8-2.9 1.2-5.1 1.2-1.7 0-3.1-.3-4-1-1-.6-1.5-1.6-1.5-2.8 0-.9.3-1.7.9-2.4.6-.6 1.4-1 2.4-1.3-.4-.1-.7-.4-1-.7-.2-.3-.4-.7-.4-1.2 0-.9.6-1.7 1.8-2.4-.8-.3-1.4-.9-1.9-1.6-.4-.7-.7-1.5-.7-2.4 0-1.4.5-2.5 1.4-3.4.8-.8 2-1.2 3.5-1.2 1 0 1.7.1 2.2.2zm-11.2 16.3c0 1.9 1.4 2.9 4.2 2.9 3.7 0 5.5-1.2 5.5-3.5 0-.9-.3-1.5-.9-1.8-.5-.4-1.5-.6-2.7-.6h-2.3c-2.6 0-3.8 1-3.8 3zm1-11.9c0 1 .3 1.9 1 2.5.7.6 1.5.9 2.6.9 1.2 0 2.1-.3 2.7-.9.6-.6.9-1.5.9-2.6 0-1.2-.3-2-.9-2.6-.7-.6-1.6-.9-2.7-.9s-2 .3-2.6.9c-.7.7-1 1.5-1 2.7zm18.7 9.8c-2 0-3.6-.6-4.7-1.9-1.2-1.2-1.7-3-1.7-5.2s.5-4 1.6-5.3c1.1-1.4 2.6-2 4.4-2 1.7 0 3 .5 3.9 1.7 1 1.1 1.4 2.7 1.4 4.6v1.1h-10c0 1.9.5 3.3 1.3 4.3.9 1 2.2 1.5 3.8 1.5.8 0 1.5 0 2.1-.1.6-.1 1.4-.4 2.3-.7v1.1c-.8.4-1.5.6-2.2.7-.7.1-1.4.2-2.2.2zm-.4-13.3c-1.3 0-2.4.4-3.2 1.3-.8.9-1.3 2.2-1.4 3.8h8.6c0-1.6-.4-2.8-1.1-3.7-.7-.9-1.6-1.4-2.9-1.4z" fill="#3e6617"/></svg>