<svg viewBox="0 0 299.994 299.994" width="156" height="156" xmlns="http://www.w3.org/2000/svg"><path d="M148.75 87.806c-17.424.568-37.578 10.605-37.576 37.143 0 13.445 7.965 21.42 16.402 29.865 3.278 3.278 6.608 6.611 9.306 10.32h23.739c2.695-3.706 6.025-7.042 9.306-10.32 8.434-8.445 16.399-16.42 16.399-29.865 0-26.538-20.155-36.575-37.576-37.143z" data-original="#2DAF4A" class="active-path"/><path d="M149.997 0C67.156 0 0 67.156 0 149.997c0 82.839 67.156 149.997 149.997 149.997 82.841 0 149.997-67.158 149.997-149.997C299.995 67.156 232.839 0 149.997 0zm-1.247 218.471c-12.893 0-23.342-11.085-23.342-24.766h46.685c.002 13.683-10.45 24.766-23.343 24.766zm21.662-37.776h-43.326c-1.167-12.753-31.476-23.871-31.476-55.747 0-34.002 25.425-52.027 53.137-52.709h.005c27.71.682 53.135 18.708 53.135 52.709 0 31.876-30.311 42.994-31.475 55.747z" data-original="#2DAF4A" class="active-path"/></svg>