<svg width="512" height="512" viewBox="-26.509000778198242 -18.933000564575195 60 60" xmlns="http://www.w3.org/2000/svg"><ellipse transform="rotate(-45 -17.853 86.773)" cx="50.772" cy="48.333" rx="30" ry="30" fill="#e8983c"/><path d="M-15.309 15.842l-6.673-8.406h4.341C-15.78-2.663-6.912-10.34 3.717-10.34c11.979 0 21.726 9.747 21.726 21.726S15.697 33.111 3.717 33.111c-7.731 0-14.937-4.161-18.816-10.857l3.419-1.979c3.172 5.481 9.072 8.887 15.397 8.887 9.801 0 17.776-7.974 17.776-17.774 0-9.802-7.975-17.776-17.776-17.776-8.442 0-15.515 5.921-17.317 13.825l4.601.028-6.31 8.377z" data-original="#000000" class="active-path" fill="#fff" stroke="#fff"/><path d="M3.783-3.72c1.09 0 1.975.884 1.975 1.975v11.984a3.451 3.451 0 0 1 1.48 2.83 3.461 3.461 0 0 1-3.456 3.457 3.413 3.413 0 0 1-1.458-.334l-6.87 3.965a1.974 1.974 0 0 1-1.974-3.419l6.877-3.971a3.44 3.44 0 0 1 1.449-2.526V-1.745A1.979 1.979 0 0 1 3.783-3.72zm0 18.269c.817 0 1.48-.665 1.48-1.48 0-.816-.664-1.481-1.48-1.481s-1.481.665-1.481 1.481c0 .815.665 1.48 1.48 1.48z" data-original="#000000" class="active-path" fill="#fff"/></svg>