<svg xmlns="http://www.w3.org/2000/svg" viewBox="306.451 266.87 45 43.89"><path fill-rule="evenodd" d="M328.951 266.87c-12.431 0-22.5 10.069-22.5 22.5 0 9.956 6.441 18.366 15.384 21.347 1.125.197 1.547-.478 1.547-1.069 0-.534-.028-2.306-.028-4.191-5.653 1.041-7.115-1.378-7.565-2.643-.254-.647-1.35-2.644-2.307-3.178-.787-.422-1.912-1.463-.028-1.491 1.772-.028 3.038 1.631 3.46 2.306 2.025 3.403 5.259 2.447 6.553 1.856.197-1.462.787-2.446 1.434-3.009-5.006-.562-10.237-2.503-10.237-11.109 0-2.447.871-4.472 2.306-6.047-.225-.563-1.013-2.869.225-5.963 0 0 1.884-.59 6.187 2.307 1.8-.507 3.713-.76 5.625-.76 1.913 0 3.825.253 5.625.76 4.303-2.925 6.188-2.307 6.188-2.307 1.237 3.094.45 5.4.225 5.963 1.434 1.575 2.306 3.572 2.306 6.047 0 8.634-5.259 10.547-10.266 11.109.816.703 1.519 2.053 1.519 4.163 0 3.009-.028 5.428-.028 6.187 0 .591.422 1.294 1.547 1.069a22.535 22.535 0 0 0 15.328-21.347c0-12.431-10.069-22.5-22.5-22.5z"/></svg>