<svg width="300" height="300" viewBox="0 0 47.001 47.001" xmlns="http://www.w3.org/2000/svg"><path d="M12.93 8.898a3.515 3.515 0 1 1-7.03 0 3.515 3.515 0 0 1 7.03 0zm2.017 23.296l-2.06 7.212L9.414 27.25 5.719 40.182a1.976 1.976 0 0 1-1.901 1.434 2.03 2.03 0 0 1-.547-.074 1.982 1.982 0 0 1-1.359-2.451l3.655-12.795V21l-1.739 4.503a1.978 1.978 0 1 1-3.693-1.427l3.634-9.413a1.981 1.981 0 0 1 1.847-1.267h1.932c.544 0 1.02.238 1.375.594h.983c.356-.357.829-.594 1.375-.594h1.931c.295 0 .57.085.827.204l-3.761 9.735a4.673 4.673 0 0 0 .086 3.602 4.668 4.668 0 0 0 2.606 2.484c.408.156.835.25 1.267.289zM34.071 8.9a3.517 3.517 0 0 1 7.032 0 3.516 3.516 0 1 1-7.032 0zm11.662 17.738a1.981 1.981 0 0 1-2.561-1.136L41.432 21v5.296l3.655 12.797a1.977 1.977 0 0 1-1.905 2.527 1.982 1.982 0 0 1-1.901-1.437L37.587 27.25l-3.473 12.158-2.062-7.215.714-2.496a4.662 4.662 0 0 0 1.262-.275 4.682 4.682 0 0 0 2.608-2.486c.509-1.149.54-2.43.086-3.602l-3.761-9.735c.257-.12.532-.204.827-.204h1.931c.546 0 1.019.238 1.375.594h.983a1.93 1.93 0 0 1 1.374-.594h1.933a1.98 1.98 0 0 1 1.847 1.267l3.635 9.413a1.98 1.98 0 0 1-1.133 2.563zM19.323 6.15a4.18 4.18 0 0 1 8.356 0 4.18 4.18 0 0 1-4.178 4.177 4.18 4.18 0 0 1-4.178-4.177zm13.093 35.878a2.352 2.352 0 0 1-2.263 3.001 2.357 2.357 0 0 1-2.262-1.706l-4.39-15.367-4.39 15.367a2.358 2.358 0 0 1-2.909 1.614 2.353 2.353 0 0 1-1.616-2.909l4.344-15.207v-6.293l-2.067 5.352a2.351 2.351 0 0 1-3.042 1.347 2.35 2.35 0 0 1-1.348-3.042l4.321-11.186a2.35 2.35 0 0 1 2.194-1.505h2.295c.647 0 1.21.282 1.633.706l-1.095 8.042 1.68 1.425 1.68-1.425-1.095-8.042c.423-.424.987-.706 1.633-.706h2.295c.97 0 1.844.598 2.194 1.505l4.32 11.186a2.353 2.353 0 0 1-4.39 1.695l-2.067-5.352v6.293z"/><path d="M8.294 17.482l-.788-.539a.202.202 0 0 1 0-.333l.788-.538.227.333-.545.372.545.372zm3.308-.705a.2.2 0 0 1-.088.166l-.788.539-.227-.333.545-.372-.545-.372.227-.333.788.539a.2.2 0 0 1 .088.166zm-1.513-.62l-.808 1.437a.2.2 0 1 1-.35-.197l.807-1.437a.201.201 0 1 1 .351.197zm26.383 1.38l-.788-.539a.2.2 0 0 1 0-.332l.788-.538.227.333-.545.371.545.373zm3.308-.705a.203.203 0 0 1-.088.167l-.788.538-.227-.332.545-.373-.545-.371.227-.333.788.539a.2.2 0 0 1 .088.165zm-1.513-.619l-.808 1.437a.2.2 0 0 1-.175.102.205.205 0 0 1-.099-.025.202.202 0 0 1-.076-.275l.807-1.437a.201.201 0 1 1 .351.198z" fill="#fff"/></svg>