<svg width="300" height="300" viewBox="0 0 79.375 79.375" xmlns="http://www.w3.org/2000/svg"><path d="M0 79.375h79.375V0H0z" fill="#dd1e25"/><path d="M68.407 48.836c0-3.19-1.316-5.046-3.748-5.046-2.433 0-3.748 1.857-3.748 5.046 0 3.208 1.297 5.046 3.748 5.046 2.45 0 3.748-1.838 3.748-5.046m2.956 0c0 3.928-2.793 6.686-6.704 6.686-3.893 0-6.703-2.758-6.703-6.686 0-3.91 2.828-6.686 6.703-6.686 3.892 0 6.704 2.775 6.704 6.686m-20.256.576c0 .36.054.595.198.883h2.145v3.19a5.497 5.497 0 0 1-2.127.415c-2.595 0-3.947-1.856-3.947-5.064s1.352-5.064 3.803-5.064c1.64 0 2.595.812 3.153 2.216l.199.505h1.297v-3.225c-1.621-.775-3.08-1.118-4.775-1.118-3.965 0-6.631 2.65-6.631 6.704 0 4.073 2.595 6.668 6.631 6.668 1.603 0 3.262-.451 5.045-1.334v-5.623h-4.793a1.687 1.687 0 0 0-.198.847M40.15 46.133c0-1.316-.812-2.018-2.434-2.018H35.59v4.054h2.126c1.604 0 2.434-.739 2.434-2.036m-14.11 3.676l-1.767-4.776-1.766 4.776zm17.605 3.928c.11.198.163.433.163.74 0 .305-.054.54-.163.738-.396.054-.9.09-1.405.09-1.748 0-2.595-.72-2.794-2.397l-.071-.63c-.216-1.82-.812-2.523-2.793-2.523h-.992v3.839h1.712v1.567H25.967v-1.567h1.478l-.83-2.253h-4.684l-.83 2.253h1.514v1.567H17.84v-1.567h1.26l4.416-11.047h2.396l4.506 11.047h2.487v-9.48h-1.532v-1.567h7.245c2.577 0 4.252 1.28 4.252 3.333 0 2.036-1.675 3.118-3.297 3.19v.054c1.64.126 2.307 1.045 2.469 2.47l.071.666c.108 1.045.325 1.514 1.154 1.514.144 0 .27-.019.378-.037m-27.464-9.622c1.207 0 1.622.522 2.018 2.036l.126.486h1.298v-4.09H8.757v1.568h1.532v9.479H8.757v1.567h6.018v-1.567h-1.802v-3.677h3.712a1.88 1.88 0 0 0 .199-.9c0-.344-.054-.56-.199-.866h-3.712v-4.036zm54.75-11.59c0-1.982-1.208-3.35-3.479-3.873l-2.289-.523c-1.333-.306-1.89-.83-1.89-1.711 0-1.064.846-1.731 2.504-1.731s2.63.595 3.009 2l.162.613h1.297v-3.117c-1.46-.74-3.009-1.117-4.577-1.117-3.082 0-5.063 1.477-5.063 3.855 0 1.839 1.152 3.19 3.37 3.677l2.288.504c1.46.325 2 .902 2 1.857 0 1.171-.883 1.82-2.649 1.82-2 0-3.028-.794-3.477-2.307l-.235-.775h-1.297v3.533c1.64.81 3.207 1.17 5.315 1.17 3.028 0 5.01-1.513 5.01-3.874m-11.534-.793H58.1l-.144.631c-.361 1.603-.865 2.108-2.054 2.108h-2.505v-9.478h1.712v-1.568h-5.93v1.568h1.533v9.478h-1.533v1.568h10.218zm-11.353 0h-1.298l-.143.631c-.361 1.603-.865 2.108-2.054 2.108h-2.506v-9.478h1.712v-1.568h-5.929v1.568h1.532v9.478h-1.532v1.568h10.218zM11.37 36.04L8.198 24.994H6.756v-1.568h5.875v1.568h-1.694l2.108 7.604 2.523-9.172h2.596l2.576 9.19 2.072-7.622h-1.765v-1.568h15.282v4.09h-1.298l-.125-.486c-.398-1.514-.812-2.036-2.019-2.036h-2.99v3.802h3.621a1.8 1.8 0 0 1 .198.865c0 .36-.054.594-.198.901h-3.622v3.91h3.117c1.171 0 1.694-.505 2.055-2.108l.144-.63h1.298v4.306H25.68v-1.568h1.531v-9.478h-2.489L21.57 36.04h-2.505l-2.559-9.153-2.63 9.153z" fill="#fefefe"/></svg>