<svg viewBox="40.70000076293945 89.5 300 300" xmlns="http://www.w3.org/2000/svg"><path d="M81.45 295.1c0-46.9 41.2-46.8 50.3-59.1l1-5.6c-12.8-6.5-21.9-22.2-21.9-40.5 0-24.2 15.7-43.7 35.1-43.7 15.3 0 28.2 12.2 33 29.1-19.4 6.2-33.8 27.2-33.8 52.2 0 17.2 6.8 33.1 17.9 43.1-1.8.9-3.8 1.9-5.5 2.7-9 4.2-21.4 10.1-30.4 21.8h-45.7zm109.8 37.6h-65c0-46.9 41.2-46.8 50.3-59.1l1-5.6c-12.8-6.5-21.9-22.2-21.9-40.5 0-24.2 15.7-43.7 35.1-43.7 19.4 0 35.1 19.6 35.1 43.7 0 18.2-8.9 33.8-21.6 40.4l1.2 6.4c10 11.7 49.8 12.4 49.8 58.5h-64v-.1zm63-37.6c-9-11.7-21.5-17.6-30.4-21.8-1.8-.8-3.7-1.8-5.5-2.7 11.1-10.1 17.9-25.9 17.9-43.1 0-25-14.4-46.1-33.8-52.2 4.8-17 17.8-29.1 33-29.1 19.4 0 35.1 19.6 35.1 43.7 0 18.2-8.9 33.8-21.6 40.4l1.2 6.4c10 11.7 49.8 12.4 49.8 58.5h-45.7v-.1z" fill="#e74c3c"/></svg>