<svg xmlns="http://www.w3.org/2000/svg" viewBox="0 0 299.998 299.998" width="162"><path fill="#fff" d="M103.313 111.747h93.369v10.374h-93.369zM103.313 157.773h93.369v10.374h-93.369zM103.313 134.76h93.369v10.374h-93.369z"/><path d="M149.995 0C67.156 0 0 67.159 0 149.997c0 82.837 67.156 150 149.995 150s150.003-67.163 150.003-150C299.997 67.159 232.834 0 149.995 0zm35.693 64.565l31.517 28.669h-31.517V64.565zm-14.913 150.011v20.855h-69.76c-10.068 0-18.225-8.159-18.225-18.225V82.79c0-10.066 8.159-18.225 18.225-18.225h76.889v36.45h39.298v79.763H194.2v.01h-90.887v10.374h90.89v12.639h-90.89v10.374h67.462v.401zm73.634 16.411h-23.425v23.425h-16.407v-23.425h-23.428v-16.41h23.428v-23.425h16.407v23.425h23.425v16.41z" fill="#fff"/></svg>