<svg viewBox="-2.278223752975464 -2.709223747253418 51.58245086669922 51.9704475402832" width="156" height="156" xmlns="http://www.w3.org/2000/svg"><path stroke-linejoin="round" stroke-linecap="round" stroke-dashoffset="3" fill="#fff" stroke="#fff" stroke-width="5" d="M.639.473h45.482v45.456H.639z"/><path d="M44.861.001H2.137A2.136 2.136 0 0 0 0 2.137v25.648l4.272-.011v-1.068h6.409a1.067 1.067 0 1 0 0-2.136H4.272V12.82h7.477v6.409c0 .59.478 1.068 1.068 1.068h5.341a1.067 1.067 0 1 0 0-2.136h-4.272v-6.41c0-.59-.479-1.068-1.068-1.068H4.272V4.274h13.886v9.613a1.068 1.068 0 1 0 2.136 0V4.274H30.44v6.409h-3.738a1.067 1.067 0 1 0 0 2.136h9.612a1.068 1.068 0 1 0 0-2.136h-3.737V4.274h10.147v7.738c.111.059.225.118.33.189l3.944 2.63V2.137A2.138 2.138 0 0 0 44.861.001zM42.727 24.308v4.534h-7.479V24.57a1.067 1.067 0 1 0-2.135 0v12.818a1.068 1.068 0 0 0 2.135 0V30.98h7.479v11.75H25.636v-8.545h3.204a1.068 1.068 0 1 0 0-2.136h-4.272c-.591 0-1.068.479-1.068 1.068v4.271h-9.613a1.068 1.068 0 1 0 0 2.136h9.612v3.203H4.272v-6.408L0 36.306v8.557C0 46.044.955 47 2.137 47h42.724c1.18 0 2.138-.957 2.138-2.136V21.49l-3.944 2.631c-.107.069-.219.128-.328.187z" data-original="#2daf4a" class="active-path" fill="#2daf4a"/><path d="M48.276 18.158l-8.708-5.803-.047 3.669H26.847c-1.18 0-2.138.957-2.138 2.136v6.409H18.3a2.137 2.137 0 0 0-2.136 2.136v3.205l-17.076-.056v4.273l19.212.056a2.137 2.137 0 0 0 2.137-2.137v-3.205h6.41c1.18 0 2.135-.957 2.135-2.136v-6.409h10.54l.021 3.641 8.733-5.779z" data-original="#2daf4a" class="active-path" fill="#2daf4a"/></svg>