<svg viewBox="0 0 486 486" width="300" height="300" xmlns="http://www.w3.org/2000/svg"><path d="M289.311 394.892v11.871c0 9.445-6.938 17.303-15.966 18.641l-2.926 10.784c-1.588 5.851-6.855 9.947-12.957 9.947h-29.008c-6.102 0-11.369-4.096-12.957-9.947l-2.842-10.784c-9.112-1.421-16.05-9.196-16.05-18.726v-11.869a11.418 11.418 0 0 1 11.452-11.454h69.802c6.353.085 11.452 5.184 11.452 11.537zm53.752-160.001c0 27.001-10.7 51.494-28.088 69.467-13.208 13.711-21.735 31.181-24.577 49.823-1.254 8.026-8.192 13.961-16.385 13.961h-62.111c-8.108 0-15.13-5.853-16.301-13.878-2.925-18.64-11.536-36.363-24.744-49.988-17.053-17.724-27.669-41.798-27.92-68.297-.585-55.676 43.72-100.732 99.394-101.151 55.591-.418 100.732 44.557 100.732 100.063zm-88.778-60.605c0-6.188-5.016-11.287-11.285-11.287-39.791 0-72.226 32.351-72.226 72.226 0 6.186 5.016 11.285 11.285 11.285 6.186 0 11.285-5.015 11.285-11.285 0-27.418 22.32-49.655 49.656-49.655a11.238 11.238 0 0 0 11.285-11.284zM243 101.975c6.186 0 11.285-5.015 11.285-11.285V51.149c0-6.186-5.016-11.285-11.285-11.285a11.239 11.239 0 0 0-11.286 11.285V90.69c0 6.27 5.1 11.285 11.286 11.285zM110.168 234.807c0-6.185-5.016-11.284-11.286-11.284h-39.54c-6.186 0-11.285 5.015-11.285 11.284 0 6.186 5.015 11.287 11.285 11.287h39.54a11.24 11.24 0 0 0 11.286-11.287zm316.49-11.284h-39.541c-6.186 0-11.285 5.015-11.285 11.284 0 6.186 5.016 11.287 11.285 11.287h39.541c6.186 0 11.285-5.017 11.285-11.287 0-6.185-5.016-11.284-11.285-11.284zm-81.756-79.333c2.842 0 5.768-1.086 7.941-3.26l28.005-28.004a11.252 11.252 0 0 0 0-15.966 11.251 11.251 0 0 0-15.967 0l-28.004 28.004a11.25 11.25 0 0 0 0 15.966c2.257 2.174 5.099 3.26 8.025 3.26zm-211.746-3.342c2.174 2.172 5.099 3.259 7.942 3.259 2.842 0 5.768-1.087 7.941-3.259a11.252 11.252 0 0 0 0-15.968l-28.004-28.004a11.251 11.251 0 0 0-15.967 0 11.252 11.252 0 0 0 0 15.966l28.088 28.006z"/></svg>