<svg viewBox="0 0 512 512" width="300" height="300" xmlns="http://www.w3.org/2000/svg"><path d="M512 84.855v248.274c0 16.569-13.431 30-30 30H300.507v62.016h37.587c8.284 0 15 6.716 15 15 0 8.284-6.716 15-15 15H173.907c-8.284 0-15-6.716-15-15 0-8.284 6.716-15 15-15h37.587v-62.016H30c-16.569 0-30-13.431-30-30V84.855c0-16.569 13.431-30 30-30h452c16.569 0 30 13.431 30 30zM141.641 200.653l40.634-27.741-16.915-24.777-55.006 37.553a18.11 18.11 0 0 0-7.904 14.963 18.11 18.11 0 0 0 7.903 14.965l55.007 37.553 16.915-24.777zm151.819-66.64c-7.22-4.058-16.366-1.496-20.426 5.726l-60.218 107.123c-4.059 7.221-1.496 16.366 5.726 20.426a14.921 14.921 0 0 0 7.336 1.927c5.244 0 10.336-2.755 13.089-7.652l60.218-107.123c4.059-7.221 1.496-16.366-5.725-20.427zm116.09 66.636a18.106 18.106 0 0 0-7.903-14.962l-55.007-37.554-16.915 24.777 40.634 27.741-40.634 27.741 16.915 24.777 55.008-37.554a18.105 18.105 0 0 0 7.902-14.966z"/></svg>