<svg xmlns="http://www.w3.org/2000/svg" viewBox="258.351 200.904 45 45"><circle cx="280.851" cy="223.404" r="22.5" fill="#007AB9"/><path d="M294.287 225.209v9.265h-5.374v-8.623c0-2.166-.762-3.65-2.728-3.65-1.484 0-2.366 1.003-2.767 1.965-.16.361-.16.843-.16 1.324v9.024h-5.375s.08-14.639 0-16.163h5.375v2.286l-.041.04h.041v-.04c.721-1.083 2.005-2.687 4.852-2.687 3.53 0 6.177 2.286 6.177 7.259zm-22.019-14.679c-1.845 0-3.048 1.203-3.048 2.807 0 1.565 1.163 2.808 2.968 2.808h.04c1.885 0 3.048-1.243 3.048-2.808-.04-1.604-1.203-2.807-3.008-2.807zm-2.727 23.944h5.374v-16.163h-5.374v16.163z" fill="#F1F2F2"/></svg>