<svg viewBox="0 0 100 100" xmlns="http://www.w3.org/2000/svg"><circle cx="45" cy="45" r="45" fill="#000"></circle>
  <path d="M 61.219 51.892 C 61.219 51.892 59.242 49.525 57.053 51.158 C 55.422 52.375 52.491 55.081 51.787 55.739 C 51.787 55.739 46.887 53.131 43.988 50.751 C 39.694 47.227 36.821 42.876 35.316 40.4 L 34.193 38.286 C 34.584 37.865 37.585 34.659 38.883 32.918 C 40.517 30.735 38.149 28.762 38.149 28.762 C 38.149 28.762 31.483 22.111 29.966 20.792 C 28.447 19.469 26.699 20.203 26.699 20.203 C 23.506 22.262 20.197 24.052 20 32.659 C 19.993 40.716 26.123 49.026 32.75 55.459 C 39.389 62.726 48.506 70.007 57.317 70 C 65.94 69.805 67.732 66.503 69.795 63.317 C 69.795 63.317 70.533 61.573 69.209 60.058 C 67.884 58.54 61.219 51.892 61.219 51.892 Z" style="fill: rgb(255, 255, 255);" bx:origin="-0.499999 -0.499998"></path>
</svg>