<svg viewBox="94.0719985961914 102.30999755859375 100 100" xmlns="http://www.w3.org/2000/svg"><path d="M176.148 165.97s-3.909-4.692-8.237-1.455c-3.226 2.412-9.023 7.776-10.416 9.078 0 0-9.69-5.166-15.424-9.884-8.494-6.985-14.174-15.608-17.151-20.513l-2.223-4.191c.775-.835 6.71-7.189 9.277-10.639 3.232-4.326-1.452-8.235-1.452-8.235s-13.183-13.183-16.184-15.798c-3.003-2.622-6.461-1.167-6.461-1.167-6.315 4.082-12.859 7.628-13.248 24.686-.013 15.969 12.109 32.438 25.215 45.188 13.131 14.402 31.162 28.833 48.588 28.817 17.055-.384 20.598-6.93 24.678-13.245 0 0 1.46-3.455-1.159-6.458-2.62-3.008-15.803-16.184-15.803-16.184z"/></svg>