<svg xmlns="http://www.w3.org/2000/svg" viewBox="0 0 299.997 299.997" width="512" height="512"><path d="M149.996 0C67.157 0 .001 67.158.001 149.997c0 82.837 67.156 150 149.995 150s150-67.163 150-150C299.996 67.156 232.835 0 149.996 0zm0 59.147c25.031 0 45.326 20.292 45.326 45.325 0 25.036-20.292 45.328-45.326 45.328s-45.325-20.292-45.325-45.328c0-25.033 20.294-45.325 45.325-45.325zm18.696 153.41h-.001v18.438H83.86c0-44.674 24.302-60.571 40.245-74.843a55.417 55.417 0 0 0 25.892 6.601 55.387 55.387 0 0 0 25.887-6.601c7.143 6.393 15.953 13.121 23.511 22.606h-7.275v23.425h-23.428v10.374zm50.21 16.41v23.425h-16.41v-23.425h-23.428v-16.41h23.428v-23.425H218.9v23.425h23.423v16.41h-23.421z" fill="#e74c3c"/></svg>