<svg viewBox="360 360 800 800" width="681.053" height="677.756" xmlns="http://www.w3.org/2000/svg"><path fill="#fff" d="M360 360h800v800H360z"><title>background</title></path><path d="M859.698 1093.333c-20.76 0-40.273-8.093-54.945-22.789a77.703 77.703 0 0 1-22.633-50.712 10.67 10.67 0 0 1 0-1.213c0-52.89-13.067-68.515-48.547-66.627-4.317.231-8.705.652-13.016 1.936-.396.117-.797.216-1.204.288-11.993 3.84-24.508 5.784-37.216 5.784-75.721 0-122.256-46.231-122.256-122.221 0-12.408 1.998-24.938 5.944-37.25.063-.342.134-.678.226-1.016 3.737-13.485 1.272-27.409-6.746-38.202-10.96-14.739-30.924-22.912-57.786-23.659-.419.027-.843.029-1.263.009-28.955-1.617-55.333-19.274-67.548-47.798-10.135-23.67-7.349-51.6 7.089-72.917 15.03-22.187 38.947-34.722 64.771-34.722 20.756 0 40.268 8.092 54.947 22.782a77.715 77.715 0 0 1 22.637 50.714c.017.404.017.811 0 1.212.8 25.352 8.264 44.083 21.291 54.812 12.56 10.344 30.108 5.425 37.006-9.313 24.551-52.446 22.468-103.228-15.397-145.297a10.881 10.881 0 0 1-.824-.838c-20.131-22.51-25.987-55.353-12.508-85.126 9.479-20.94 28.661-36.672 50.984-42.13 55.084-13.462 104.051 32.339 96.312 86.762-2.191 15.409-8.229 30.749-19.713 41.25l-.118.106c-36.525 39.125-34.697 85.743-22.156 123.93 6.407 19.508 28.072 29.363 47.192 21.896 65.383-25.537 105.021-93.834 106.68-134.998a13.843 13.843 0 0 1 0-1.188 77.7 77.7 0 0 1 22.628-50.686c14.677-14.692 34.189-22.777 54.944-22.777 25.785 0 49.64 12.477 64.697 34.597 14.511 21.316 17.315 49.302 7.163 73.008-12.243 28.589-38.621 46.253-67.589 47.824-.364.017-.72.017-1.074.007-39.54 1.733-99.154 44.297-132.001 104.852-9.472 17.46-2.837 39.248 14.612 48.732 13.172 7.158 28.401 11.217 44.732 11.217 36.851 0 67.651-17.125 84.257-32.584 4.86-3.896 5.462-5.211 12.12-9.333 12.428-7.699 26.011-11.724 40.63-11.654 49.118.238 87.606 46.335 74.846 97.626-5.537 22.256-21.281 41.348-42.194 50.749-29.735 13.367-62.427 7.472-84.858-12.663-.29-.262-.569-.538-.83-.822-16.534-15.239-47.16-31.096-84.244-31.096-23.068 0-43.864 7.068-59.359 15.153-14.001 7.305-22.393 22.664-13.315 35.588 1.14 1.621 2.376 3.253 3.864 4.743 21 21.008 55.811 17.061 75.162 24.684 11.108 4.374 22.382 9.108 30.648 17.725 29.173 30.413 28.804 78.916-1.107 108.856-14.672 14.696-34.18 22.789-54.935 22.789" fill="#5ddc42"><title>gecko-logo</title></path></svg>