<svg viewBox="-318.79998779296875 388.9989929199219 44 44" width="125" height="125" xmlns="http://www.w3.org/2000/svg"><path fill="#fff" d="M-318.8 388.998h44v44h-44z"><title>background</title></path><path fill="#FFF" d="M-295.183 425.001c1.919 0 3.717-.84 4.917-2.038l5.273-5.274c1.2-1.2 2.039-2.998 2.039-4.796v-16.665h-16.544c-1.918 0-3.716.84-4.916 2.037l-5.275 5.395c-1.2 1.2-2.039 2.999-2.039 4.796v16.546h16.545z"/><linearGradient id="a" gradientUnits="userSpaceOnUse" x1="-299.374" y1="-383.587" x2="-286.501" y2="-370.714" gradientTransform="matrix(1 0 0 -1 2 27)"><stop offset=".1" stop-color="#9DDAF7"/><stop offset=".9" stop-color="#049BD8"/></linearGradient><path fill="url(#a)" d="M-297.581 397.666a5.373 5.373 0 0 0-5.395 5.395v1.799h11.39v11.269h1.798a5.372 5.372 0 0 0 5.395-5.395v-13.068h-13.188z"/><linearGradient id="b" gradientUnits="userSpaceOnUse" x1="-312.269" y1="-393.147" x2="-288.41" y2="-393.147" gradientTransform="matrix(1 0 0 -1 2 27)"><stop offset="0" stop-color="#10AEE5"/><stop offset=".163" stop-color="#0FA8E0"/><stop offset=".377" stop-color="#0C98D1"/><stop offset=".619" stop-color="#077DB8"/><stop offset=".879" stop-color="#015795"/><stop offset=".9" stop-color="#005492"/></linearGradient><path fill="url(#b)" d="M-286.551 416.85c-.959.478-2.158.839-3.357.839h-14.506l-5.755 5.755h15.106c1.439 0 2.877-.6 3.837-1.68l4.915-4.914h-.24z"/><linearGradient id="c" gradientUnits="userSpaceOnUse" x1="-308.881" y1="-396.562" x2="-308.881" y2="-372.705" gradientTransform="matrix(1 0 0 -1 2 27)"><stop offset="0" stop-color="#0980BC"/><stop offset=".401" stop-color="#056EAA"/><stop offset=".85" stop-color="#005492"/></linearGradient><path fill="url(#c)" d="M-303.575 399.824c-.599.958-.838 2.157-.838 3.355v14.628l-5.755 5.755v-15.107c-.12-1.438.48-2.876 1.56-3.836l4.915-4.914.118.119z"/></svg>